<?xml version="1.0" encoding="utf-8"?>
<!-- Generator: Adobe Illustrator 16.0.0, SVG Export Plug-In . SVG Version: 6.00 Build 0)  -->
<!DOCTYPE svg PUBLIC "-//W3C//DTD SVG 1.0//EN" "http://www.w3.org/TR/2001/REC-SVG-20010904/DTD/svg10.dtd">
<svg version="1.0" id="Layer_1" xmlns="http://www.w3.org/2000/svg" xmlns:xlink="http://www.w3.org/1999/xlink" x="0px" y="0px"
	 width="2913.292px" height="645.065px" viewBox="0 0 2913.292 645.065" enable-background="new 0 0 2913.292 645.065"
	 xml:space="preserve">
<path display="none" fill="#C81523" d="M2776.955,485.157c0,5.257-26.044,9.522-58.172,9.522H67.127
	c-32.129,0-58.173-4.266-58.173-9.522v-55.709c0-5.259,26.044-9.522,58.173-9.522h2651.655c32.128,0,58.172,4.264,58.172,9.522
	V485.157z"/>
<g>
	<path fill="#6D6D6D" d="M1334.952,491.725l0.391,17.188c3.906-6.381,8.789-11.166,14.648-14.355s12.369-4.785,19.531-4.785
		c16.666,0,27.246,6.836,31.738,20.508c3.775-6.576,8.822-11.637,15.137-15.186s13.281-5.322,20.898-5.322
		c22.656,0,34.213,12.369,34.668,37.109v70.508h-11.719V527.76c-0.064-9.439-2.1-16.439-6.104-20.996s-10.531-6.836-19.58-6.836
		c-8.398,0.131-15.494,2.848-21.289,8.154s-9.018,11.768-9.668,19.385v69.922h-11.719v-70.508
		c-0.064-9.049-2.197-15.805-6.396-20.264s-10.66-6.689-19.385-6.689c-7.357,0-13.672,2.1-18.945,6.299s-9.18,10.434-11.719,18.701
		v72.461h-11.719V491.725H1334.952z"/>
	<path fill="#6D6D6D" d="M1542.471,599.342c-8.984,0-17.105-2.213-24.365-6.641s-12.906-10.596-16.943-18.506
		s-6.055-16.781-6.055-26.611v-4.199c0-10.156,1.969-19.303,5.908-27.441s9.424-14.535,16.455-19.189s14.648-6.982,22.852-6.982
		c12.826,0,22.998,4.379,30.518,13.135s11.279,20.719,11.279,35.889v6.543h-75.391v2.246c0,11.979,3.434,21.957,10.303,29.932
		s15.512,11.963,25.928,11.963c6.25,0,11.768-1.139,16.553-3.418s9.131-5.924,13.037-10.938l7.324,5.566
		C1571.28,593.125,1558.813,599.342,1542.471,599.342z M1540.323,499.733c-8.789,0-16.195,3.223-22.217,9.668
		s-9.684,15.104-10.986,25.977h63.379v-1.27c-0.326-10.156-3.223-18.424-8.691-24.805S1549.176,499.733,1540.323,499.733z"/>
	<path fill="#6D6D6D" d="M1645.792,599.342c-8.984,0-17.105-2.213-24.365-6.641s-12.906-10.596-16.943-18.506
		s-6.055-16.781-6.055-26.611v-4.199c0-10.156,1.969-19.303,5.908-27.441s9.424-14.535,16.455-19.189s14.648-6.982,22.852-6.982
		c12.826,0,22.998,4.379,30.518,13.135s11.279,20.719,11.279,35.889v6.543h-75.391v2.246c0,11.979,3.434,21.957,10.303,29.932
		s15.512,11.963,25.928,11.963c6.25,0,11.768-1.139,16.553-3.418s9.131-5.924,13.037-10.938l7.324,5.566
		C1674.6,593.125,1662.133,599.342,1645.792,599.342z M1643.643,499.733c-8.789,0-16.195,3.223-22.217,9.668
		s-9.684,15.104-10.986,25.977h63.379v-1.27c-0.326-10.156-3.223-18.424-8.691-24.805S1652.497,499.733,1643.643,499.733z"/>
	<path fill="#6D6D6D" d="M1726.358,464.674v27.051h21.875v9.57h-21.875v70.488c0,5.867,1.059,10.232,3.174,13.1
		c2.115,2.869,5.648,4.303,10.596,4.303c1.953,0,5.111-0.326,9.473-0.977l0.488,9.488c-3.061,1.096-7.227,1.645-12.5,1.645
		c-8.008,0-13.834-2.328-17.48-6.982s-5.469-11.508-5.469-20.557v-70.508h-19.434v-9.57h19.434v-27.051H1726.358z"/>
	<path fill="#6D6D6D" d="M1771.768,461.208c0-2.201,0.717-4.061,2.148-5.58s3.385-2.281,5.859-2.281s4.443,0.762,5.908,2.281
		s2.197,3.379,2.197,5.58c0,2.199-0.732,4.043-2.197,5.531s-3.434,2.232-5.908,2.232s-4.428-0.744-5.859-2.232
		S1771.768,463.407,1771.768,461.208z M1785.538,597.389h-11.719V491.725h11.719V597.389z"/>
	<path fill="#6D6D6D" d="M1828.409,491.725l0.391,18.066c3.971-6.51,8.92-11.475,14.844-14.893s12.467-5.127,19.629-5.127
		c11.328,0,19.76,3.189,25.293,9.57s8.334,15.951,8.398,28.711v69.336h-11.621v-69.434c-0.064-9.439-2.066-16.471-6.006-21.094
		s-10.238-6.934-18.896-6.934c-7.227,0-13.623,2.262-19.189,6.787s-9.684,10.629-12.354,18.311v72.363h-11.621V491.725H1828.409z"/>
	<path fill="#6D6D6D" d="M1922.452,543.581c0-16.537,3.662-29.639,10.986-39.307s17.27-14.502,29.834-14.502
		c14.389,0,25.326,5.729,32.812,17.188l0.586-15.234h10.938v103.516c0,13.605-3.809,24.381-11.426,32.324
		c-7.617,7.941-17.936,11.914-30.957,11.914c-7.357,0-14.371-1.645-21.045-4.932c-6.674-3.289-11.93-7.666-15.771-13.135
		l6.543-7.031c8.268,10.156,18.1,15.234,29.492,15.234c9.766,0,17.383-2.881,22.852-8.643s8.301-13.754,8.496-23.975v-13.281
		c-7.486,10.416-18.393,15.625-32.715,15.625c-12.24,0-22.07-4.883-29.492-14.648s-11.133-22.949-11.133-39.551V543.581z
		 M1934.268,545.631c0,13.477,2.701,24.105,8.105,31.885s13.021,11.67,22.852,11.67c14.389,0,24.576-6.445,30.566-19.336v-49.121
		c-2.734-6.771-6.674-11.93-11.816-15.479s-11.328-5.322-18.555-5.322c-9.83,0-17.48,3.857-22.949,11.572
		S1934.268,530.592,1934.268,545.631z"/>
	<path fill="#6D6D6D" d="M2127.627,599.342c-8.984,0-17.105-2.213-24.365-6.641s-12.906-10.596-16.943-18.506
		s-6.055-16.781-6.055-26.611v-4.199c0-10.156,1.969-19.303,5.908-27.441s9.424-14.535,16.455-19.189s14.648-6.982,22.852-6.982
		c12.826,0,22.998,4.379,30.518,13.135s11.279,20.719,11.279,35.889v6.543h-75.391v2.246c0,11.979,3.434,21.957,10.303,29.932
		s15.512,11.963,25.928,11.963c6.25,0,11.768-1.139,16.553-3.418s9.131-5.924,13.037-10.938l7.324,5.566
		C2156.436,593.125,2143.969,599.342,2127.627,599.342z M2125.479,499.733c-8.789,0-16.195,3.223-22.217,9.668
		s-9.684,15.104-10.986,25.977h63.379v-1.27c-0.326-10.156-3.223-18.424-8.691-24.805S2134.333,499.733,2125.479,499.733z"/>
	<path fill="#6D6D6D" d="M2198.428,597.389v-96.094h-17.48v-9.57h17.48v-12.793c0-10.807,2.75-19.107,8.252-24.902
		s13.168-8.691,22.998-8.691c4.428,0,8.561,0.549,12.402,1.645l-0.879,9.684c-3.256-0.781-6.803-1.172-10.645-1.172
		c-6.445,0-11.459,2.008-15.039,6.021c-3.58,4.016-5.371,9.711-5.371,17.088v13.121h25.195v9.57h-25.195v96.094H2198.428z"/>
	<path fill="#6D6D6D" d="M2264.639,597.389v-96.094h-17.48v-9.57h17.48v-12.793c0-10.807,2.75-19.107,8.252-24.902
		s13.168-8.691,22.998-8.691c4.428,0,8.561,0.549,12.402,1.645l-0.879,9.684c-3.256-0.781-6.803-1.172-10.645-1.172
		c-6.445,0-11.459,2.008-15.039,6.021c-3.58,4.016-5.371,9.711-5.371,17.088v13.121h25.195v9.57h-25.195v96.094H2264.639z"/>
	<path fill="#6D6D6D" d="M2321.768,461.208c0-2.201,0.717-4.061,2.148-5.58s3.385-2.281,5.859-2.281s4.443,0.762,5.908,2.281
		s2.197,3.379,2.197,5.58c0,2.199-0.732,4.043-2.197,5.531s-3.434,2.232-5.908,2.232s-4.428-0.744-5.859-2.232
		S2321.768,463.407,2321.768,461.208z M2335.538,597.389h-11.719V491.725h11.719V597.389z"/>
	<path fill="#6D6D6D" d="M2406.338,589.479c8.139,0,14.957-2.295,20.459-6.885s8.48-10.531,8.936-17.822h11.23
		c-0.326,6.445-2.344,12.32-6.055,17.627s-8.643,9.457-14.795,12.451s-12.744,4.492-19.775,4.492
		c-13.867,0-24.854-4.818-32.959-14.453s-12.158-22.592-12.158-38.867v-3.516c0-10.416,1.822-19.629,5.469-27.637
		s8.871-14.193,15.674-18.555s14.762-6.543,23.877-6.543c11.588,0,21.143,3.451,28.662,10.352s11.539,15.982,12.061,27.246h-11.23
		c-0.521-8.268-3.5-14.941-8.936-20.02s-12.289-7.617-20.557-7.617c-10.547,0-18.734,3.809-24.561,11.426s-8.74,18.295-8.74,32.031
		v3.418c0,13.477,2.914,23.99,8.74,31.543S2395.727,589.479,2406.338,589.479z"/>
	<path fill="#6D6D6D" d="M2469.62,461.208c0-2.201,0.717-4.061,2.148-5.58s3.385-2.281,5.859-2.281s4.443,0.762,5.908,2.281
		s2.197,3.379,2.197,5.58c0,2.199-0.732,4.043-2.197,5.531s-3.434,2.232-5.908,2.232s-4.428-0.744-5.859-2.232
		S2469.62,463.407,2469.62,461.208z M2483.389,597.389h-11.719V491.725h11.719V597.389z"/>
	<path fill="#6D6D6D" d="M2556.045,599.342c-8.984,0-17.105-2.213-24.365-6.641s-12.906-10.596-16.943-18.506
		s-6.055-16.781-6.055-26.611v-4.199c0-10.156,1.969-19.303,5.908-27.441s9.424-14.535,16.455-19.189s14.648-6.982,22.852-6.982
		c12.826,0,22.998,4.379,30.518,13.135s11.279,20.719,11.279,35.889v6.543h-75.391v2.246c0,11.979,3.434,21.957,10.303,29.932
		s15.512,11.963,25.928,11.963c6.25,0,11.768-1.139,16.553-3.418s9.131-5.924,13.037-10.938l7.324,5.566
		C2584.854,593.125,2572.387,599.342,2556.045,599.342z M2553.897,499.733c-8.789,0-16.195,3.223-22.217,9.668
		s-9.684,15.104-10.986,25.977h63.379v-1.27c-0.326-10.156-3.223-18.424-8.691-24.805S2562.75,499.733,2553.897,499.733z"/>
	<path fill="#6D6D6D" d="M2629.581,491.725l0.391,18.066c3.971-6.51,8.92-11.475,14.844-14.893s12.467-5.127,19.629-5.127
		c11.328,0,19.76,3.189,25.293,9.57s8.334,15.951,8.398,28.711v69.336h-11.621v-69.434c-0.064-9.439-2.066-16.471-6.006-21.094
		s-10.238-6.934-18.896-6.934c-7.227,0-13.623,2.262-19.189,6.787s-9.684,10.629-12.354,18.311v72.363h-11.621V491.725H2629.581z"/>
	<path fill="#6D6D6D" d="M2767.374,589.479c8.139,0,14.957-2.295,20.459-6.885s8.48-10.531,8.936-17.822h11.23
		c-0.326,6.445-2.344,12.32-6.055,17.627s-8.643,9.457-14.795,12.451s-12.744,4.492-19.775,4.492
		c-13.867,0-24.854-4.818-32.959-14.453s-12.158-22.592-12.158-38.867v-3.516c0-10.416,1.822-19.629,5.469-27.637
		s8.871-14.193,15.674-18.555s14.762-6.543,23.877-6.543c11.588,0,21.143,3.451,28.662,10.352s11.539,15.982,12.061,27.246h-11.23
		c-0.521-8.268-3.5-14.941-8.936-20.02s-12.289-7.617-20.557-7.617c-10.547,0-18.734,3.809-24.561,11.426s-8.74,18.295-8.74,32.031
		v3.418c0,13.477,2.914,23.99,8.74,31.543S2756.762,589.479,2767.374,589.479z"/>
	<path fill="#6D6D6D" d="M2864.834,580.592l30.859-88.867h12.598l-45.117,123.633l-2.344,5.469
		c-5.795,12.824-14.746,19.238-26.855,19.238c-2.799,0-5.795-0.457-8.984-1.367l-0.098-9.668l6.055,0.586
		c5.729,0,10.367-1.416,13.916-4.248s6.559-7.699,9.033-14.6l5.176-14.258l-39.844-104.785h12.793L2864.834,580.592z"/>
</g>
<g>
	<linearGradient id="SVGID_1_" gradientUnits="userSpaceOnUse" x1="157.0015" y1="395.2544" x2="157.0014" y2="18.7554">
		<stop  offset="0" style="stop-color:#548DA8"/>
		<stop  offset="0.7409" style="stop-color:#24688D"/>
	</linearGradient>
	<path fill="url(#SVGID_1_)" d="M300.502,395.254h-92c-5.5,0-7.5-5-10-10l-62.5-120l-3.5-2c-5,0-21-0.5-26-0.5v122.5
		c0,5.5-4.5,10-10,10h-81c-5.5,0-10.5-4.5-10.5-10v-327c0-24,8-29.5,29-33c20-3,70-6.5,105.5-6.5c93,0,156.5,29.5,156.5,121v8
		c0,53.5-29.5,85-61,98.5l72.5,136c1,2,1.5,4,1.5,5.5C309.002,392.254,305.502,395.254,300.502,395.254z M195.001,139.754
		c0-23.5-16.5-35.5-50-35.5c-3.5,0-35.5,1-38.5,1v79.5c2.5,0.5,33.5,0.5,36.5,0.5c38.5,0,52-13.5,52-37V139.754z"/>
	<linearGradient id="SVGID_2_" gradientUnits="userSpaceOnUse" x1="465.748" y1="399.7544" x2="465.748" y2="100.2544">
		<stop  offset="0" style="stop-color:#548DA8"/>
		<stop  offset="0.7409" style="stop-color:#24688D"/>
	</linearGradient>
	<path fill="url(#SVGID_2_)" d="M578.998,395.254h-69.5c-5.5,0-10-4.5-10-10v-10.5c-19,14-44,25-71.5,25c-39.5,0-85.5-22-85.5-89.5
		v-6c0-60,45.5-81.5,129-81.5h21.5v-14.5c0-24.5-16-29-33-29c-32,0-63.5,1-87,3.5h-1.5c-5.5,0-9.5-4-9.5-10v-48.5c0-5.5,4-10,10-12
		c16.5-5,59.5-12,91.5-12c72.5,0,125.5,26,125.5,108v177C588.998,390.754,584.498,395.254,578.998,395.254z M495.998,274.754h-24.5
		c-25,0-35,8-35,29v5c0,17,11.5,22,25.5,22c12,0,25.5-3.5,34-7.5V274.754z"/>
	<linearGradient id="SVGID_3_" gradientUnits="userSpaceOnUse" x1="772.2456" y1="491.2544" x2="772.2456" y2="99.7544">
		<stop  offset="0" style="stop-color:#548DA8"/>
		<stop  offset="0.7409" style="stop-color:#24688D"/>
	</linearGradient>
	<path fill="url(#SVGID_3_)" d="M771.496,399.754c-8,0-23.5-1.5-34-3v84c0,5.5-4.5,10.5-10,10.5h-75c-5.5,0-11-5-11-10.5v-352.5
		c0-8.5,3-12.5,18-16c26-5.5,67-12.5,112-12.5c82,0,131.499,46,131.499,130.5v39C902.995,348.754,859.996,399.754,771.496,399.754z
		 M806.996,230.254c0-30-7.5-51-35.5-51c-14.5,0-24.5,0.5-34,2v137c10,1,22,2.5,34,2.5c28,0,35.5-22,35.5-51.5V230.254z"/>
	<linearGradient id="SVGID_4_" gradientUnits="userSpaceOnUse" x1="1000.2446" y1="395.2544" x2="1000.2446" y2="7.7554">
		<stop  offset="0" style="stop-color:#548DA8"/>
		<stop  offset="0.7409" style="stop-color:#24688D"/>
	</linearGradient>
	<path fill="url(#SVGID_4_)" d="M1039.995,76.754h-79c-5.5,0-11.5-4.5-11.5-10v-49c0-5.5,6-10,11.5-10h79c5.5,0,11,4.5,11,10v49
		C1050.995,72.254,1045.495,76.754,1039.995,76.754z M1037.495,395.254h-74.5c-5.5,0-11-5.5-11-11v-269.5c0-5.5,5.5-10.5,11-10.5
		h74.5c5.5,0,11,5,11,10.5v269.5C1048.495,389.754,1042.995,395.254,1037.495,395.254z"/>
	<linearGradient id="SVGID_5_" gradientUnits="userSpaceOnUse" x1="1228.4888" y1="399.7544" x2="1228.4888" y2="8.7554">
		<stop  offset="0" style="stop-color:#548DA8"/>
		<stop  offset="0.7409" style="stop-color:#24688D"/>
	</linearGradient>
	<path fill="url(#SVGID_5_)" d="M1341.489,387.254c-26,5.5-67,12.5-112,12.5c-82,0-131.5-46-131.5-130.5v-39
		c0-79.5,43-130.5,131.5-130.5c8,0,23.5,2,34,3.5v-84.5c0-5.5,4.5-10,10-10h74.5c5.5,0,11,4.5,11,10v352.5
		C1358.989,379.754,1356.489,383.754,1341.489,387.254z M1263.489,181.254c-10-1-22-2-34-2c-28,0-36,21.5-36,51v39
		c0,30,8,51.5,36,51.5c14.5,0,24.5-1,34-2.5V181.254z"/>
	<linearGradient id="SVGID_6_" gradientUnits="userSpaceOnUse" x1="1537.7368" y1="399.7544" x2="1537.7368" y2="99.7544">
		<stop  offset="0" style="stop-color:#548DA8"/>
		<stop  offset="0.7409" style="stop-color:#24688D"/>
	</linearGradient>
	<path fill="url(#SVGID_6_)" d="M1537.987,399.754c-83.5,0-131.5-47.5-131.5-135.5v-29c0-88,48-135.5,131.5-135.5
		s131,47.5,131,135.5v29C1668.987,352.254,1621.487,399.754,1537.987,399.754z M1573.487,235.254c0-39.5-12.5-55-35.5-55
		s-36,15-36,55v29c0,39.5,13,55.5,36,55.5s35.5-15.5,35.5-55.5V235.254z"/>
	<linearGradient id="SVGID_7_" gradientUnits="userSpaceOnUse" x1="1840.2349" y1="399.7544" x2="1840.2349" y2="99.7544">
		<stop  offset="0" style="stop-color:#548DA8"/>
		<stop  offset="0.7409" style="stop-color:#24688D"/>
	</linearGradient>
	<path fill="url(#SVGID_7_)" d="M1840.485,399.754c-83.5,0-131.5-47.5-131.5-135.5v-29c0-88,48-135.5,131.5-135.5
		s131,47.5,131,135.5v29C1971.485,352.254,1923.985,399.754,1840.485,399.754z M1875.985,235.254c0-39.5-12.5-55-35.5-55
		s-36,15-36,55v29c0,39.5,13,55.5,36,55.5s35.5-15.5,35.5-55.5V235.254z"/>
</g>
<g>
	<path fill="#6D6D6D" d="M2042.004,386.432h-3c-5,0-9.5-4-9.5-9.5v-37c0-5,4.5-9.5,9.5-9.5h3c5,0,9.5,4.5,9.5,9.5v37
		C2051.504,382.432,2047.004,386.432,2042.004,386.432z"/>
	<path fill="#6D6D6D" d="M2269.504,381.932c-21,2.5-44.5,4.5-60.5,4.5c-71.5,0-99-55.5-99-121v-33.5c0-66.5,27.5-119.5,99-119.5
		c16,0,39.5,2,60.5,4.5c7.5,1,9.5,3.5,9.5,9v3.5c0,5-3.5,7-8,7c-1,0-1.5,0-2.5,0c-23.5-3-43-4.5-59.5-4.5c-57,0-77,39.5-77,100v33.5
		c0,60.5,20,101.5,77,101.5c16.5,0,36-1.5,59.5-4.5c1,0,1.5,0,2.5,0c4.5,0,8,2,8,7v3.5
		C2279.004,378.432,2277.004,380.932,2269.504,381.932z"/>
	<path fill="#6D6D6D" d="M2431.502,386.432c-68.5,0-103-44-103-119.5v-35c0-75.5,34.5-119.5,103-119.5s103,44,103,119.5v35
		C2534.502,342.432,2500.002,386.432,2431.502,386.432z M2512.502,231.932c0-61.5-22.5-100-81-100s-81,38.5-81,100v35
		c0,61.5,22.5,100,81,100s81-38.5,81-100V231.932z"/>
	<path fill="#6D6D6D" d="M2891.497,383.432h-5c-5.5,0-8.5-4.5-8.5-9.5v-179c0-47.5-22-63-58.5-63c-22,0-47,7-67.5,17
		c4.5,11.5,7.5,26,7.5,44v181c0,5-2,9.5-7.5,9.5h-7.5c-5,0-7-4.5-7-9.5v-181c0-46.5-20.5-61-47-61c-22,0-48.5,10-71.5,21v221
		c0,5-2.5,9.5-7.5,9.5h-7c-5,0-7.5-4.5-7.5-9.5v-249c0-5.5,3.5-10,9-10h4c5.5,0,9,4.5,9,10v9c20.5-10,49.5-21.5,76-21.5
		c18,0,35,5.5,47.5,20.5c25-12,54-20.5,80.5-20.5c42,0,77,23,77,82.5v179C2899.997,378.932,2896.997,383.432,2891.497,383.432z"/>
</g>
</svg>
